<?xml version="1.0" encoding="UTF-8" standalone="no"?>
<!-- Generator: Adobe Illustrator 16.0.0, SVG Export Plug-In . SVG Version: 6.00 Build 0)  -->

<svg
   version="1.1"
   id="Layer_1"
   x="0px"
   y="0px"
   width="814"
   height="200"
   viewBox="0 0 814 200"
   enable-background="new 0 0 814 580"
   xml:space="preserve"
   sodipodi:docname="SearchNearLogo2.svg"
   inkscape:version="1.1.1 (3bf5ae0d25, 2021-09-20)"
   xmlns:inkscape="http://www.inkscape.org/namespaces/inkscape"
   xmlns:sodipodi="http://sodipodi.sourceforge.net/DTD/sodipodi-0.dtd"
   xmlns="http://www.w3.org/2000/svg"
   xmlns:svg="http://www.w3.org/2000/svg"><defs
   id="defs37">
	
	
	
</defs><sodipodi:namedview
   id="namedview35"
   pagecolor="#ffffff"
   bordercolor="#666666"
   borderopacity="1.0"
   inkscape:pageshadow="2"
   inkscape:pageopacity="0.0"
   inkscape:pagecheckerboard="0"
   showgrid="false"
   inkscape:zoom="0.5"
   inkscape:cx="385"
   inkscape:cy="339"
   inkscape:window-width="1920"
   inkscape:window-height="1017"
   inkscape:window-x="-8"
   inkscape:window-y="-8"
   inkscape:window-maximized="1"
   inkscape:current-layer="Layer_1" />
<g
   id="g1372"
   transform="translate(0,-13.059981)"><g
     id="g4"
     transform="matrix(0.93779805,0,0,0.93779805,9.043138,-150.24701)"
     style="fill:#555555;fill-opacity:1">
		<path
   d="m 267.646,205.503 c 7.767,-4.401 18.411,-1 22.801,6.596 4.158,6.742 2.695,15.07 2.633,22.581 -0.037,38.223 0,76.445 -0.012,114.681 0.707,9.205 -7.523,18.459 -16.923,17.936 -4.182,-0.135 -8.839,0.658 -12.534,-1.818 -5.157,-3.291 -8.425,-8.654 -12.449,-13.131 -29.396,-35.223 -58.84,-70.398 -88.212,-105.646 -2.475,-2.792 -4.438,-6.426 -8.181,-7.669 -0.452,25.775 -0.073,51.562 -0.195,77.335 0.11,5.721 -0.354,11.475 0.427,17.168 12.4,-9.145 23.288,-20.215 35.334,-29.822 1.536,-1.072 3.401,-1.939 4.816,-0.121 2.658,1.73 0.633,4.91 -0.647,6.814 -10.96,16.217 -21.897,32.457 -32.81,48.695 -3.194,4.902 -8.705,8.756 -14.777,8.195 -9.267,0.975 -17.789,-7.596 -17.593,-16.74 -0.024,-43.479 -0.036,-86.957 0,-130.435 0.097,-7.425 5.743,-13.972 12.778,-15.948 7.327,-1.695 16.191,-0.731 21.214,5.487 29.774,35.7 59.572,71.362 89.382,107.023 4.744,5.305 8.633,11.465 14.193,15.973 0.512,-2.961 1.06,-5.936 0.999,-8.961 -0.036,-26.018 -0.036,-52.048 0,-78.079 0.049,-2.609 -0.377,-5.206 -0.792,-7.766 -2.084,1.061 -4,2.401 -5.718,3.987 -9.705,8.571 -19.521,17.032 -29.274,25.542 -1.451,1.524 -4.523,1.61 -5.633,-0.329 -2.121,-1.976 0.232,-4.426 1.219,-6.316 9.608,-14.045 18.971,-28.274 28.542,-42.356 3.268,-4.695 5.951,-10.352 11.412,-12.876 z"
   id="path2"
   style="fill:#555555;fill-opacity:1" />
	</g><g
     id="g16"
     transform="matrix(0.83819127,0,0,0.83819127,103.09819,-110.36047)"
     style="fill:#555555;fill-opacity:1">
		<g
   id="g14"
   style="fill:#555555;fill-opacity:1">
			<path
   d="m 355.05,284.177 h 15.144 v 80.614 h -1.025 l -45.886,-45.545 v 44.634 h -15.144 v -80.386 h 1.025 l 45.886,45.43 z"
   id="path6"
   style="fill:#555555;fill-opacity:1" />
			<path
   d="m 460.035,298.752 h -52.262 v -14.575 h 52.262 z m -3.529,32.563 h -48.732 v -14.46 h 48.732 z m 4.213,18.105 v 14.46 h -52.945 v -14.46 z"
   id="path8"
   style="fill:#555555;fill-opacity:1" />
			<path
   d="m 566.387,363.88 h -17.193 l -19.697,-56.931 -19.698,56.931 h -17.192 l 29.148,-79.703 h 15.484 z"
   id="path10"
   style="fill:#555555;fill-opacity:1" />
			<path
   d="m 625.031,336.553 h -11.045 v 27.327 h -15.143 v -41.787 h 29.148 c 7.515,0 12.297,-4.896 12.297,-11.728 0,-6.832 -4.782,-11.613 -12.297,-11.613 h -29.148 v -14.575 h 29.49 c 17.762,0 27.668,11.614 27.668,26.188 0,10.703 -5.238,19.812 -15.144,23.91 l 17.079,29.604 h -17.079 z"
   id="path12"
   style="fill:#555555;fill-opacity:1" />
		</g>
	</g><g
     id="g30"
     transform="matrix(1.0488915,0,0,1.0488915,11.082015,-182.77138)"
     style="fill:#555555;fill-opacity:1">
		<path
   d="m 355.135,249.457 c 0,10.59 -7.395,19.628 -23.28,19.628 -12.507,0 -23.828,-6.665 -25.654,-15.885 l 11.138,-4.291 c 1.187,4.838 6.755,7.851 13.42,7.851 7.395,0 11.412,-2.921 11.412,-6.847 0,-3.834 -3.104,-5.478 -13.511,-8.582 -14.698,-4.382 -20.724,-9.951 -20.724,-19.354 0,-8.399 6.117,-18.441 22.549,-18.441 9.769,0 19.719,5.204 21.545,14.333 l -10.773,4.017 c -0.821,-4.017 -6.025,-6.208 -10.681,-6.299 -5.112,-0.091 -9.769,1.734 -9.769,5.934 0,3.013 2.374,4.93 12.416,8.034 12.6,3.834 21.912,8.033 21.912,19.902 z"
   id="path18"
   style="fill:#555555;fill-opacity:1" />
		<path
   d="m 404.345,215.77 h -41.904 v -11.686 h 41.904 z m -2.83,26.109 h -39.074 v -11.594 h 39.074 z m 3.378,14.516 v 11.594 h -42.452 v -11.594 z"
   id="path20"
   style="fill:#555555;fill-opacity:1" />
		<path
   d="m 469.531,267.989 h -13.785 l -15.794,-45.646 -15.794,45.646 h -13.785 l 23.371,-63.905 h 12.416 z"
   id="path22"
   style="fill:#555555;fill-opacity:1" />
		<path
   d="m 496.467,246.079 h -8.855 v 21.91 H 475.47 v -33.505 h 23.371 c 6.025,0 9.859,-3.925 9.859,-9.403 0,-5.478 -3.834,-9.312 -9.859,-9.312 H 475.47 v -11.686 h 23.645 c 14.242,0 22.185,9.312 22.185,20.998 0,8.582 -4.199,15.885 -12.143,19.171 l 13.694,23.736 h -13.694 z"
   id="path24"
   style="fill:#555555;fill-opacity:1" />
		<path
   d="m 573.43,248.27 10.955,5.478 c -5.203,9.038 -14.698,14.972 -26.475,14.972 -18.351,0 -30.948,-14.242 -30.948,-32.592 0,-18.35 12.598,-32.592 30.948,-32.592 11.776,0 21.271,5.843 26.475,14.972 l -10.955,5.478 c -3.195,-5.112 -8.49,-8.308 -15.52,-8.308 -11.595,0 -18.533,8.764 -18.533,20.45 0,11.594 6.938,20.358 18.533,20.358 7.029,0 12.324,-3.104 15.52,-8.216 z"
   id="path26"
   style="fill:#555555;fill-opacity:1" />
		<path
   d="m 641.264,204.084 v 63.905 h -12.142 v -26.11 h -25.745 v 26.11 h -12.142 v -63.905 h 12.142 v 26.201 h 25.745 v -26.201 z"
   id="path28"
   style="fill:#555555;fill-opacity:1" />
	</g></g>
</svg>
