<?xml version="1.0" encoding="UTF-8" standalone="no"?>
<!-- Generator: Adobe Illustrator 16.0.0, SVG Export Plug-In . SVG Version: 6.00 Build 0)  -->

<svg
   version="1.1"
   id="Layer_1"
   x="0px"
   y="0px"
   width="200"
   height="200"
   viewBox="0 0 200 200"
   enable-background="new 0 0 814 580"
   xml:space="preserve"
   sodipodi:docname="SearchNearIcon.svg"
   inkscape:version="1.1.1 (3bf5ae0d25, 2021-09-20)"
   xmlns:inkscape="http://www.inkscape.org/namespaces/inkscape"
   xmlns:sodipodi="http://sodipodi.sourceforge.net/DTD/sodipodi-0.dtd"
   xmlns="http://www.w3.org/2000/svg"
   xmlns:svg="http://www.w3.org/2000/svg"><defs
   id="defs37">
	
	
	

		
		
		
		
		
		
	</defs><sodipodi:namedview
   id="namedview35"
   pagecolor="#ffffff"
   bordercolor="#666666"
   borderopacity="1.0"
   inkscape:pageshadow="2"
   inkscape:pageopacity="0.0"
   inkscape:pagecheckerboard="0"
   showgrid="false"
   inkscape:zoom="0.5"
   inkscape:cx="385"
   inkscape:cy="339"
   inkscape:window-width="1920"
   inkscape:window-height="1017"
   inkscape:window-x="-8"
   inkscape:window-y="-8"
   inkscape:window-maximized="1"
   inkscape:current-layer="Layer_1" />
<g
   id="g959"
   transform="translate(3.1737792e-7,1.0593606)"><g
     id="g4"
     transform="matrix(0.93779805,0,0,0.93779805,-98.194504,-183.30699)"
     style="fill:#555555;fill-opacity:1">
		<path
   d="m 267.646,205.503 c 7.767,-4.401 18.411,-1 22.801,6.596 4.158,6.742 2.695,15.07 2.633,22.581 -0.037,38.223 0,76.445 -0.012,114.681 0.707,9.205 -7.523,18.459 -16.923,17.936 -4.182,-0.135 -8.839,0.658 -12.534,-1.818 -5.157,-3.291 -8.425,-8.654 -12.449,-13.131 -29.396,-35.223 -58.84,-70.398 -88.212,-105.646 -2.475,-2.792 -4.438,-6.426 -8.181,-7.669 -0.452,25.775 -0.073,51.562 -0.195,77.335 0.11,5.721 -0.354,11.475 0.427,17.168 12.4,-9.145 23.288,-20.215 35.334,-29.822 1.536,-1.072 3.401,-1.939 4.816,-0.121 2.658,1.73 0.633,4.91 -0.647,6.814 -10.96,16.217 -21.897,32.457 -32.81,48.695 -3.194,4.902 -8.705,8.756 -14.777,8.195 -9.267,0.975 -17.789,-7.596 -17.593,-16.74 -0.024,-43.479 -0.036,-86.957 0,-130.435 0.097,-7.425 5.743,-13.972 12.778,-15.948 7.327,-1.695 16.191,-0.731 21.214,5.487 29.774,35.7 59.572,71.362 89.382,107.023 4.744,5.305 8.633,11.465 14.193,15.973 0.512,-2.961 1.06,-5.936 0.999,-8.961 -0.036,-26.018 -0.036,-52.048 0,-78.079 0.049,-2.609 -0.377,-5.206 -0.792,-7.766 -2.084,1.061 -4,2.401 -5.718,3.987 -9.705,8.571 -19.521,17.032 -29.274,25.542 -1.451,1.524 -4.523,1.61 -5.633,-0.329 -2.121,-1.976 0.232,-4.426 1.219,-6.316 9.608,-14.045 18.971,-28.274 28.542,-42.356 3.268,-4.695 5.951,-10.352 11.412,-12.876 z"
   id="path2"
   style="fill:#555555;fill-opacity:1" />
	</g><path
     d="m 125.66323,169.82197 c 0,11.10776 -7.75655,20.58764 -24.4182,20.58764 -13.11848,0 -24.99298,-6.99086 -26.90826,-16.66164 l 11.68255,-4.5008 c 1.24504,5.07454 7.08527,8.23485 14.07613,8.23485 7.75655,0 11.96995,-3.06381 11.96995,-7.18176 0,-4.02145 -3.25576,-5.74583 -14.17157,-9.00159 -15.41661,-4.59624 -21.73723,-10.43752 -21.73723,-20.30024 0,-8.80964 6.41607,-19.34261 23.65145,-19.34261 10.24662,0 20.68309,5.45843 22.59837,15.03376 l -11.29971,4.2134 c -0.86114,-4.2134 -6.31957,-6.51152 -11.20321,-6.60697 -5.36193,-0.0954 -10.24662,1.81878 -10.24662,6.22412 0,3.16031 2.49007,5.17104 13.02304,8.4268 13.21603,4.02145 22.98331,8.42574 22.98331,20.87504 z"
     id="path18"
     style="fill:#555555;fill-opacity:1;stroke-width:1.04889" /></g>
</svg>
