<?xml version="1.0" encoding="utf-8"?>
<!-- Generator: Adobe Illustrator 16.0.0, SVG Export Plug-In . SVG Version: 6.00 Build 0)  -->
<!DOCTYPE svg PUBLIC "-//W3C//DTD SVG 1.1//EN" "http://www.w3.org/Graphics/SVG/1.1/DTD/svg11.dtd">
<svg version="1.1" id="Layer_1" xmlns="http://www.w3.org/2000/svg" xmlns:xlink="http://www.w3.org/1999/xlink" x="0px" y="0px"
	 width="814px" height="580px" viewBox="0 0 814 580" enable-background="new 0 0 814 580" xml:space="preserve">
<g>
	<g>
		<path d="M267.646,205.503c7.767-4.401,18.411-1,22.801,6.596c4.158,6.742,2.695,15.07,2.633,22.581
			c-0.037,38.223,0,76.445-0.012,114.681c0.707,9.205-7.523,18.459-16.923,17.936c-4.182-0.135-8.839,0.658-12.534-1.818
			c-5.157-3.291-8.425-8.654-12.449-13.131c-29.396-35.223-58.84-70.398-88.212-105.646c-2.475-2.792-4.438-6.426-8.181-7.669
			c-0.452,25.775-0.073,51.562-0.195,77.335c0.11,5.721-0.354,11.475,0.427,17.168c12.4-9.145,23.288-20.215,35.334-29.822
			c1.536-1.072,3.401-1.939,4.816-0.121c2.658,1.73,0.633,4.91-0.647,6.814c-10.96,16.217-21.897,32.457-32.81,48.695
			c-3.194,4.902-8.705,8.756-14.777,8.195c-9.267,0.975-17.789-7.596-17.593-16.74c-0.024-43.479-0.036-86.957,0-130.435
			c0.097-7.425,5.743-13.972,12.778-15.948c7.327-1.695,16.191-0.731,21.214,5.487c29.774,35.7,59.572,71.362,89.382,107.023
			c4.744,5.305,8.633,11.465,14.193,15.973c0.512-2.961,1.06-5.936,0.999-8.961c-0.036-26.018-0.036-52.048,0-78.079
			c0.049-2.609-0.377-5.206-0.792-7.766c-2.084,1.061-4,2.401-5.718,3.987c-9.705,8.571-19.521,17.032-29.274,25.542
			c-1.451,1.524-4.523,1.61-5.633-0.329c-2.121-1.976,0.232-4.426,1.219-6.316c9.608-14.045,18.971-28.274,28.542-42.356
			C259.502,213.684,262.185,208.027,267.646,205.503z"/>
	</g>
	<g>
		<g>
			<path d="M355.05,284.177h15.144v80.614h-1.025l-45.886-45.545v44.634h-15.144v-80.386h1.025l45.886,45.43V284.177z"/>
			<path d="M460.035,298.752h-52.262v-14.575h52.262V298.752z M456.506,331.315h-48.732v-14.46h48.732V331.315z M460.719,349.42
				v14.46h-52.945v-14.46H460.719z"/>
			<path d="M566.387,363.88h-17.193l-19.697-56.931l-19.698,56.931h-17.192l29.148-79.703h15.484L566.387,363.88z"/>
			<path d="M625.031,336.553h-11.045v27.327h-15.143v-41.787h29.148c7.515,0,12.297-4.896,12.297-11.728
				s-4.782-11.613-12.297-11.613h-29.148v-14.575h29.49c17.762,0,27.668,11.614,27.668,26.188c0,10.703-5.238,19.812-15.144,23.91
				l17.079,29.604h-17.079L625.031,336.553z"/>
		</g>
	</g>
	<g>
		<path d="M355.135,249.457c0,10.59-7.395,19.628-23.28,19.628c-12.507,0-23.828-6.665-25.654-15.885l11.138-4.291
			c1.187,4.838,6.755,7.851,13.42,7.851c7.395,0,11.412-2.921,11.412-6.847c0-3.834-3.104-5.478-13.511-8.582
			c-14.698-4.382-20.724-9.951-20.724-19.354c0-8.399,6.117-18.441,22.549-18.441c9.769,0,19.719,5.204,21.545,14.333l-10.773,4.017
			c-0.821-4.017-6.025-6.208-10.681-6.299c-5.112-0.091-9.769,1.734-9.769,5.934c0,3.013,2.374,4.93,12.416,8.034
			C345.823,233.389,355.135,237.588,355.135,249.457z"/>
		<path d="M404.345,215.77h-41.904v-11.686h41.904V215.77z M401.515,241.879h-39.074v-11.594h39.074V241.879z M404.893,256.395
			v11.594h-42.452v-11.594H404.893z"/>
		<path d="M469.531,267.989h-13.785l-15.794-45.646l-15.794,45.646h-13.785l23.371-63.905h12.416L469.531,267.989z"/>
		<path d="M496.467,246.079h-8.855v21.91H475.47v-33.505h23.371c6.025,0,9.859-3.925,9.859-9.403s-3.834-9.312-9.859-9.312H475.47
			v-11.686h23.645c14.242,0,22.185,9.312,22.185,20.998c0,8.582-4.199,15.885-12.143,19.171l13.694,23.736h-13.694L496.467,246.079z
			"/>
		<path d="M573.43,248.27l10.955,5.478c-5.203,9.038-14.698,14.972-26.475,14.972c-18.351,0-30.948-14.242-30.948-32.592
			s12.598-32.592,30.948-32.592c11.776,0,21.271,5.843,26.475,14.972l-10.955,5.478c-3.195-5.112-8.49-8.308-15.52-8.308
			c-11.595,0-18.533,8.764-18.533,20.45c0,11.594,6.938,20.358,18.533,20.358C564.939,256.486,570.234,253.382,573.43,248.27z"/>
		<path d="M641.264,204.084v63.905h-12.142v-26.11h-25.745v26.11h-12.142v-63.905h12.142v26.201h25.745v-26.201H641.264z"/>
	</g>
</g>
</svg>
